<svg xmlns="http://www.w3.org/2000/svg" viewBox="0 0 215.96 35"><defs><style>.cls-1{fill:#a469a8;}.cls-2{fill:#a5bec0;}.cls-3{fill:#fff;}</style></defs><title>Asset 2</title><g id="Layer_2" data-name="Layer 2"><g id="Layer_1-2" data-name="Layer 1"><rect class="cls-1" x="134.68" width="81.28" height="35"/><rect class="cls-2" width="134.68" height="35"/><path class="cls-3" d="M14.66,18.67V22.1h-1.6V12.86h3.53a3.59,3.59,0,0,1,2.46.8A2.72,2.72,0,0,1,20,15.8a2.59,2.59,0,0,1-.9,2.11,3.69,3.69,0,0,1-2.49.76Zm0-1.29h1.93A1.89,1.89,0,0,0,17.9,17a1.47,1.47,0,0,0,.45-1.16,1.62,1.62,0,0,0-.45-1.2,1.78,1.78,0,0,0-1.26-.46h-2Z"/><path class="cls-3" d="M27.62,18.54H25.83V22.1h-1.6V12.86h3.25a3.84,3.84,0,0,1,2.47.71,2.55,2.55,0,0,1,.87,2.08,2.62,2.62,0,0,1-.45,1.56,2.92,2.92,0,0,1-1.25,1L31.2,22v.08H29.48Zm-1.79-1.29h1.65a1.83,1.83,0,0,0,1.27-.41,1.41,1.41,0,0,0,.46-1.12,1.52,1.52,0,0,0-.42-1.15,1.8,1.8,0,0,0-1.26-.42h-1.7Z"/><path class="cls-3" d="M42.58,17.72a5.71,5.71,0,0,1-.47,2.38,3.56,3.56,0,0,1-1.35,1.58,3.73,3.73,0,0,1-2,.55,3.79,3.79,0,0,1-2-.55,3.67,3.67,0,0,1-1.36-1.57,5.44,5.44,0,0,1-.48-2.34v-.52a5.63,5.63,0,0,1,.48-2.39,3.57,3.57,0,0,1,1.35-1.58,3.64,3.64,0,0,1,2-.55,3.76,3.76,0,0,1,2,.54,3.49,3.49,0,0,1,1.34,1.56,5.66,5.66,0,0,1,.49,2.37ZM41,17.24a4,4,0,0,0-.58-2.36,1.92,1.92,0,0,0-1.65-.82,1.9,1.9,0,0,0-1.63.82,4,4,0,0,0-.6,2.31v.53a4,4,0,0,0,.6,2.35,2.06,2.06,0,0,0,3.29,0A4.11,4.11,0,0,0,41,17.72Z"/><path class="cls-3" d="M50.15,20.09l2.35-7.23h1.77L50.94,22.1H49.38l-3.31-9.24h1.76Z"/><path class="cls-3" d="M59.86,22.1h-1.6V12.86h1.6Z"/><path class="cls-3" d="M64.7,22.1V12.86h2.73a4.31,4.31,0,0,1,2.17.54A3.79,3.79,0,0,1,71.07,15a4.9,4.9,0,0,1,.52,2.3v.46A5,5,0,0,1,71.07,20a3.65,3.65,0,0,1-1.5,1.54,4.44,4.44,0,0,1-2.21.54Zm1.6-8v6.67h1A2.44,2.44,0,0,0,69.29,20,3.47,3.47,0,0,0,70,17.76v-.52a3.52,3.52,0,0,0-.66-2.3,2.33,2.33,0,0,0-1.89-.79Z"/><path class="cls-3" d="M81.45,18H77.66v2.85h4.43V22.1h-6V12.86h6v1.29H77.66V16.7h3.79Z"/><path class="cls-3" d="M86.26,22.1V12.86H89a4.29,4.29,0,0,1,2.17.54A3.67,3.67,0,0,1,92.63,15a4.9,4.9,0,0,1,.52,2.3v.46A4.86,4.86,0,0,1,92.63,20a3.69,3.69,0,0,1-1.49,1.54,4.5,4.5,0,0,1-2.22.54Zm1.61-8v6.67h1A2.42,2.42,0,0,0,90.85,20a3.47,3.47,0,0,0,.69-2.27v-.52a3.58,3.58,0,0,0-.65-2.3,2.35,2.35,0,0,0-1.9-.79Z"/><path class="cls-3" d="M103.71,22.1V12.86h3.17a3.91,3.91,0,0,1,2.38.62,2.22,2.22,0,0,1,.82,1.88,2,2,0,0,1-.34,1.14,2.23,2.23,0,0,1-1,.79,2.05,2.05,0,0,1,1.16.76,2.27,2.27,0,0,1,.41,1.35,2.44,2.44,0,0,1-.84,2,3.61,3.61,0,0,1-2.39.7Zm1.61-5.35h1.57a1.85,1.85,0,0,0,1.17-.34,1.17,1.17,0,0,0,.42-1,1.17,1.17,0,0,0-.39-1,1.91,1.91,0,0,0-1.21-.31h-1.56Zm0,1.18v2.89h1.78a1.72,1.72,0,0,0,1.18-.38,1.32,1.32,0,0,0,.43-1,1.32,1.32,0,0,0-1.48-1.47Z"/><path class="cls-3" d="M117.44,17.24l2.12-4.38h1.78l-3.1,5.84v3.4h-1.61V18.7l-3.1-5.84h1.78Z"/><path class="cls-3" d="M153.91,13.39a3.31,3.31,0,0,1,1.4,1.17,3.23,3.23,0,0,1,.5,1.79,3.18,3.18,0,0,1-.5,1.78,3.22,3.22,0,0,1-1.4,1.16,5.12,5.12,0,0,1-2.15.41h-1.58v2.38H147.6V13h4.16A5.29,5.29,0,0,1,153.91,13.39Zm-1.11,3.94a1.22,1.22,0,0,0,.41-1,1.25,1.25,0,0,0-.41-1,1.8,1.8,0,0,0-1.19-.35h-1.43v2.67h1.43A1.8,1.8,0,0,0,152.8,17.33Z"/><path class="cls-3" d="M160.87,21.16A4.2,4.2,0,0,1,159.74,18V13h2.58v5c0,1.45.58,2.18,1.73,2.18s1.71-.73,1.71-2.18V13h2.54V18a4.2,4.2,0,0,1-1.13,3.13,5,5,0,0,1-6.3,0Z"/><path class="cls-3" d="M181.56,13v9.1h-2.12l-4-4.85v4.85H172.9V13H175l4,4.85V13Z"/><path class="cls-3" d="M186.24,13h2.57v9.1h-2.57Z"/><path class="cls-3" d="M199.6,20.32h-3.85L195,22.08h-2.63l4-9.1H199l4,9.1h-2.67Zm-.75-1.9-1.17-2.92-1.17,2.92Z"/></g></g></svg>